<svg id="Outline" height="512" viewBox="0 0 512 512" width="512" xmlns="http://www.w3.org/2000/svg"><path d="m492.438 89.334-36.5-24.334a71.808 71.808 0 0 0 -79.877 0l-4.311 2.875a55.849 55.849 0 0 1 -57.879 2.567l-21.879-11.933a72.268 72.268 0 0 0 -71.521 1.47l-13.858 8.313a56.246 56.246 0 0 1 -59.874-1.424l-4.6-3.068a72.321 72.321 0 0 0 -76.983-1.832l-45.272 27.162a8 8 0 1 0 8.232 13.72l45.27-27.162a56.248 56.248 0 0 1 59.875 1.424l4.6 3.068a72.316 72.316 0 0 0 76.982 1.832l13.857-8.312a56.212 56.212 0 0 1 55.627-1.143l21.882 11.933a71.809 71.809 0 0 0 74.416-3.3l4.312-2.875a55.856 55.856 0 0 1 62.126 0l36.5 24.333a8 8 0 0 0 8.876-13.312z"/><path d="m472 247.99a24 24 0 1 0 24 24 24.027 24.027 0 0 0 -24-24zm0 32a8 8 0 1 1 8-8 8.009 8.009 0 0 1 -8 8z"/><path d="m448 207.99a24 24 0 1 0 -24 24 24.027 24.027 0 0 0 24-24zm-32 0a8 8 0 1 1 8 8 8.009 8.009 0 0 1 -8-8z"/><path d="m472 119.99a24 24 0 1 0 24 24 24.027 24.027 0 0 0 -24-24zm0 32a8 8 0 1 1 8-8 8.009 8.009 0 0 1 -8 8z"/><path d="m472 327.99c-21.279 0-39.633-19.77-51.284-36.355a216.9 216.9 0 0 1 -21.288-38.616 8.155 8.155 0 0 0 -.369-.793c-23.68-44.4-63.3-74.892-117.77-90.629-43.814-12.66-86.2-12.271-107.56-10.912a40.078 40.078 0 0 0 -29.4 15.887c-37.009 48.886-45.684 102.681-47.713 125.849l-47.7-19.082a24 24 0 0 0 -32.916 22.284v72.734a24 24 0 0 0 32.914 22.284l47.086-18.834v20.183a72.081 72.081 0 0 0 72 72l95.789.01c19.486 0 47.055-.489 74.413-8.319 23.3-6.669 43.859-18.438 59.455-34.034 37.609-37.608 75.552-45.738 75.912-45.812a8 8 0 0 0 6.431-7.845v-32a8 8 0 0 0 -8-8zm-314.912-151.761a24.1 24.1 0 0 1 17.657-9.576c20.326-1.292 60.618-1.672 102.1 10.315a215.691 215.691 0 0 1 35.5 13.609c-33.954-.313-65.049 3.462-92.735 11.318-29.153 8.272-54.634 21.042-75.738 37.952a172.874 172.874 0 0 0 -27.111 27.045c5.321-25.099 16.559-59.266 40.327-90.663zm-114.116 199.557a8 8 0 0 1 -10.972-7.429v-72.734a8 8 0 0 1 10.971-7.423l58.058 23.223a7.978 7.978 0 0 0 10.545-4.9h.015c.093-.277 9.61-28 42.295-54.187 19.428-15.568 43.012-27.359 70.1-35.045 29.732-8.437 63.773-11.914 101.384-10.392a245.659 245.659 0 0 0 -17.389 20.779c-16.986 22.763-28 45.712-32.862 68.325h-19.117a32 32 0 0 0 0 64h20.056c6.741 28.243 21.87 56.209 45.074 83.361-15.828 3.218-31.445 4.221-44.8 4.514-29.76-1.662-56-23.271-86.194-48.152-5.533-4.56-11.255-9.275-17.136-13.98-41.712-33.369-67.9-33.753-69-33.753a8 8 0 0 0 -2.971.572zm230.167-31.786h-17.139a16 16 0 0 1 0-32h16.648a145.2 145.2 0 0 0 .491 32zm-161.139 47.99v-22.479c2.1.571 4.578 1.35 7.433 2.431 9.268 3.509 24.35 10.92 43.569 26.3 5.791 4.633 11.468 9.31 16.957 13.834 16.623 13.7 32.132 26.47 48.005 35.922h-59.964a56.063 56.063 0 0 1 -56-56.008zm352-30.161c-13.379 4.021-45.482 16.33-77.657 48.5-12.638 12.639-29.114 22.436-47.866 28.527-26.2-28.961-42.38-58.673-48.112-88.374a129.568 129.568 0 0 1 -.737-45.215c6.921-43.033 40.061-81.036 54.449-94.7a156.367 156.367 0 0 1 40.668 48.822c2.8 6.857 32.433 76.614 79.255 83.974z"/><path d="m368 304a24 24 0 1 0 24 24 24.027 24.027 0 0 0 -24-24zm0 32a8 8 0 1 1 8-8 8.009 8.009 0 0 1 -8 8z"/></svg>